# Made in Blockbench 5.1.1
mtllib rolling_wheel.mtl

o cylinder
v 1.927470528863119e-18 0.3746875 1.927470528863119e-18
v 1.927470528863119e-18 0.6253125 1.927470528863119e-18
v 0.08373412263472584 0.3746875 0.3125
v 0.08373412263472584 0.6253125 0.3125
v 0.22876587736527412 0.3746875 0.22876587736527418
v 0.22876587736527412 0.6253125 0.22876587736527418
v 0.3125 0.3746875 0.08373412263472584
v 0.3125 0.6253125 0.08373412263472584
v 0.3125 0.3746875 -0.08373412263472586
v 0.3125 0.6253125 -0.08373412263472586
v 0.22876587736527418 0.3746875 -0.22876587736527412
v 0.22876587736527418 0.6253125 -0.22876587736527412
v 0.08373412263472595 0.3746875 -0.31249999999999994
v 0.08373412263472595 0.6253125 -0.31249999999999994
v -0.08373412263472571 0.3746875 -0.3125
v -0.08373412263472571 0.6253125 -0.3125
v -0.22876587736527412 0.3746875 -0.22876587736527423
v -0.22876587736527412 0.6253125 -0.22876587736527423
v -0.31249999999999994 0.3746875 -0.0837341226347258
v -0.31249999999999994 0.6253125 -0.0837341226347258
v -0.3125 0.3746875 0.0837341226347257
v -0.3125 0.6253125 0.0837341226347257
v -0.22876587736527423 0.3746875 0.22876587736527412
v -0.22876587736527423 0.6253125 0.22876587736527412
v -0.08373412263472581 0.3746875 0.3125
v -0.08373412263472581 0.6253125 0.3125
vt 1.1102230246251565e-16 0.16747178458717304
vt 0 0
vt 0.312501243750232 0.08372660796378062
vt 0.8124999999999996 0
vt 0.9799624999999996 0
vt 0.9799624999999996 0.25
vt 0.8124999999999996 0.25
vt 2.7755575615628914e-17 0.16747178458717304
vt 0 0
vt 0.3125012437502319 0.08374517662339243
vt 1.1102230246251565e-16 0.16747178458717316
vt 0 0
vt 0.31250124375023197 0.08374517662339209
vt 0.8124999999999996 0
vt 0.9799624999999996 0
vt 0.9799624999999996 0.25
vt 0.8124999999999996 0.25
vt 0 0.16747178458717293
vt 0 0
vt 0.31250124375023186 0.08372660796378106
vt 0 0.16746250000000007
vt 0 0
vt 0.3125 0.08373125000000003
vt 0.8124999999999996 0
vt 0.9799624999999996 0
vt 0.9799624999999996 0.25
vt 0.8124999999999996 0.25
vt 0 0.16746250000000007
vt 0 0
vt 0.3125 0.08373125000000003
vt 0 0.16747178458717293
vt 0 0
vt 0.31250124375023186 0.08372660796378106
vt 0.8124999999999996 0
vt 0.9799624999999996 0
vt 0.9799624999999996 0.25
vt 0.8124999999999996 0.25
vt 1.1102230246251565e-16 0.16747178458717316
vt 0 0
vt 0.31250124375023197 0.08374517662339209
vt 2.7755575615628914e-17 0.16747178458717304
vt 0 0
vt 0.3125012437502319 0.08374517662339243
vt 0.8124999999999996 0
vt 0.9799624999999996 0
vt 0.9799624999999996 0.25
vt 0.8124999999999996 0.25
vt 1.1102230246251565e-16 0.16747178458717304
vt 0 0
vt 0.312501243750232 0.08372660796378062
vt 0 0.16746249999999985
vt 0 0
vt 0.31249999999999994 0.08373124999999992
vt 0.8124999999999996 0
vt 0.9799624999999996 0
vt 0.9799624999999996 0.25
vt 0.8124999999999996 0.25
vt 0 0.16746249999999996
vt 0 0
vt 0.3125 0.08373125000000003
vt 5.551115123125783e-17 0.16747178458717304
vt 0 0
vt 0.31250124375023197 0.08372660796378062
vt 0.8124999999999996 0
vt 0.9799624999999996 0
vt 0.9799624999999996 0.25
vt 0.8124999999999996 0.25
vt 0 0.16747178458717304
vt 0 0
vt 0.3125012437502319 0.08374517662339198
vt 5.551115123125783e-17 0.16747178458717293
vt 0 0
vt 0.3125012437502319 0.08374517662339209
vt 0.8124999999999996 0
vt 0.9799624999999996 0
vt 0.9799624999999996 0.25
vt 0.8124999999999996 0.25
vt 0 0.16747178458717293
vt 5.551115123125783e-17 0
vt 0.3125012437502319 0.08372660796378084
vt 0 0.16746250000000007
vt 0 0
vt 0.3125 0.08373125000000003
vt 0.8124999999999996 0
vt 0.9799624999999996 0
vt 0.9799624999999996 0.25
vt 0.8124999999999996 0.25
vt 0 0.16746250000000007
vt 0 0
vt 0.3125 0.08373125000000003
vt 5.551115123125783e-17 0.16747178458717304
vt 0 0
vt 0.3125012437502319 0.08372660796378073
vt 0.8124999999999996 0
vt 0.9799624999999996 0
vt 0.9799624999999996 0.25
vt 0.8124999999999996 0.25
vt 5.551115123125783e-17 0.16747178458717293
vt 0 0
vt 0.3125012437502319 0.08374517662339209
vt 0 0.16747178458717316
vt 0 0
vt 0.3125012437502319 0.08374517662339198
vt 0.8124999999999996 0
vt 0.9799624999999996 0
vt 0.9799624999999996 0.25
vt 0.8124999999999996 0.25
vt 2.7755575615628914e-17 0.16747178458717304
vt 0 0
vt 0.3125012437502319 0.08372660796378073
vt 0 0.16746249999999996
vt 0 0
vt 0.3125 0.08373125000000003
vt 0.8124999999999996 0
vt 0.9799624999999996 0
vt 0.9799624999999996 0.25
vt 0.8124999999999996 0.25
vt 0 0.16746249999999996
vt 0 0
vt 0.3125 0.08373125000000003
vn 0 -1 0
vn 0.49999999999999994 0 0.8660254037844387
vn 0 1 0
vn 0 -1 0
vn 0.8660254037844388 0 0.5000000000000001
vn 0 1 0
vn 0 -1 0
vn 1 0 0
vn 0 1 0
vn 0 -1 0
vn 0.8660254037844387 0 -0.5000000000000001
vn 0 1 0
vn 0 -1 0
vn 0.5000000000000001 0 -0.8660254037844387
vn 0 1 0
vn 0 -1 0
vn 3.3147269885071027e-16 0 -1
vn 0 1 0
vn 0 -1 0
vn -0.49999999999999944 0 -0.8660254037844392
vn 0 1 0
vn 0 -1 0
vn -0.8660254037844389 0 -0.4999999999999996
vn 0 1 0
vn 0 -1 0
vn -1 0 -3.3147269885071057e-16
vn 0 1 0
vn 0 -1 0
vn -0.8660254037844392 0 0.49999999999999944
vn 0 1 0
vn 0 -1 0
vn -0.49999999999999983 0 0.8660254037844387
vn 0 1 0
vn 0 -1 0
vn 0 0 1
vn 0 1 0
usemtl m_0184a602-e5c8-9934-1f29-faf283ead8dd
f 5/1/1 3/2/1 1/3/1
f 3/4/2 5/5/2 6/6/2 4/7/2
f 4/8/3 6/9/3 2/10/3
f 7/11/4 5/12/4 1/13/4
f 5/14/5 7/15/5 8/16/5 6/17/5
f 6/18/6 8/19/6 2/20/6
f 9/21/7 7/22/7 1/23/7
f 7/24/8 9/25/8 10/26/8 8/27/8
f 8/28/9 10/29/9 2/30/9
f 11/31/10 9/32/10 1/33/10
f 9/34/11 11/35/11 12/36/11 10/37/11
f 10/38/12 12/39/12 2/40/12
f 13/41/13 11/42/13 1/43/13
f 11/44/14 13/45/14 14/46/14 12/47/14
f 12/48/15 14/49/15 2/50/15
f 15/51/16 13/52/16 1/53/16
f 13/54/17 15/55/17 16/56/17 14/57/17
f 14/58/18 16/59/18 2/60/18
f 17/61/19 15/62/19 1/63/19
f 15/64/20 17/65/20 18/66/20 16/67/20
f 16/68/21 18/69/21 2/70/21
f 19/71/22 17/72/22 1/73/22
f 17/74/23 19/75/23 20/76/23 18/77/23
f 18/78/24 20/79/24 2/80/24
f 21/81/25 19/82/25 1/83/25
f 19/84/26 21/85/26 22/86/26 20/87/26
f 20/88/27 22/89/27 2/90/27
f 23/91/28 21/92/28 1/93/28
f 21/94/29 23/95/29 24/96/29 22/97/29
f 22/98/30 24/99/30 2/100/30
f 25/101/31 23/102/31 1/103/31
f 23/104/32 25/105/32 26/106/32 24/107/32
f 24/108/33 26/109/33 2/110/33
f 3/111/34 25/112/34 1/113/34
f 25/114/35 3/115/35 4/116/35 26/117/35
f 26/118/36 4/119/36 2/120/36